<?xml version="1.0" encoding="utf-8"?>
<!-- Generator: Adobe Illustrator 22.0.1, SVG Export Plug-In . SVG Version: 6.00 Build 0)  -->
<svg version="1.1" id="Ñëîé_1" xmlns="http://www.w3.org/2000/svg" xmlns:xlink="http://www.w3.org/1999/xlink" x="0px" y="0px"
	 viewBox="0 0 380.7 343" style="enable-background:new 0 0 380.7 343;" xml:space="preserve">
<style type="text/css">
	.st0{opacity:0.5;fill:url(#SVGID_1_);}
	.st1{opacity:0.502;fill:#E8E042;}
	.st2{opacity:0.7529;fill:#E8E042;}
	.st3{opacity:0.8784;fill:#E8E042;}
	.st4{opacity:0.9725;fill:#E8E042;}
	.st5{fill:#E8E042;}
	.st6{fill:#944C19;}
	.st7{fill:url(#SVGID_2_);}
	.st8{fill:url(#SVGID_3_);}
	.st9{fill:url(#SVGID_4_);}
	.st10{fill:url(#SVGID_5_);}
	.st11{fill:url(#SVGID_6_);}
	.st12{fill:url(#SVGID_7_);}
	.st13{opacity:0.5;fill:url(#SVGID_8_);}
	.st14{opacity:0.5;fill:url(#SVGID_9_);}
	.st15{fill:#515151;}
	.st16{opacity:0.5;}
	.st17{fill:url(#SVGID_10_);}
	.st18{fill:#2D2D2D;}
	.st19{fill:url(#SVGID_11_);}
	.st20{fill:#B36614;}
	.st21{fill:#CF791D;}
	.st22{fill:#FCD1C5;}
	.st23{fill:#F0F6FF;}
	.st24{fill:#C4CCD6;}
	.st25{fill:#E2B1A6;}
	.st26{fill:#AA8383;}
	.st27{fill:#936D6D;}
	.st28{fill:#492B26;}
	.st29{clip-path:url(#SVGID_13_);fill:#595533;}
	.st30{clip-path:url(#SVGID_13_);fill:#492B26;}
	.st31{opacity:0.5;fill:url(#SVGID_14_);}
	.st32{opacity:0.5;fill:url(#SVGID_15_);}
	.st33{opacity:0.5;fill:url(#SVGID_16_);}
	.st34{opacity:0.3;fill:#4A2E0B;}
	.st35{opacity:0.5;fill:url(#SVGID_17_);}
	.st36{opacity:0.5;fill:url(#SVGID_18_);}
	.st37{fill:#A5A546;}
	.st38{opacity:0.63;fill:#2D2D2D;}
	.st39{fill:url(#SVGID_19_);}
	.st40{fill:url(#SVGID_20_);}
	.st41{fill:#FFFFFF;}
	.st42{fill:#A29C28;}
	.st43{fill:#F2F2AD;}
	.st44{fill:#DBDB91;}
	.st45{fill:url(#SVGID_21_);}
	.st46{fill:url(#SVGID_22_);}
	.st47{fill:url(#SVGID_23_);}
</style>
<radialGradient id="SVGID_1_" cx="-2402.1782" cy="-340.8457" r="141.0063" gradientTransform="matrix(-0.866 0.5 0.866 0.5 -1585.2327 1598.3967)" gradientUnits="userSpaceOnUse">
	<stop  offset="0" style="stop-color:#E8E042"/>
	<stop  offset="0.1687" style="stop-color:#BBB431"/>
	<stop  offset="0.3542" style="stop-color:#908B20"/>
	<stop  offset="0.5347" style="stop-color:#6F6B14"/>
	<stop  offset="0.7063" style="stop-color:#57540A"/>
	<stop  offset="0.8655" style="stop-color:#494605"/>
	<stop  offset="1" style="stop-color:#444103"/>
</radialGradient>
<ellipse class="st0" cx="199.9" cy="226.9" rx="172.7" ry="99.7"/>
<g>
	<path class="st1" d="M343.9,151.6v-35.4c-0.8-12.1-5.6-23.6-13.6-34.1v35.4C338.3,128,343.1,139.5,343.9,151.6L343.9,151.6z
		 M326.2,112.5l0-35.4c-2.8-3.2-6-6.3-9.4-9.2v35.4C320.3,106.2,323.4,109.3,326.2,112.5L326.2,112.5z M311,98.5V63.1
		c-3.7-2.8-7.7-5.6-12-8.1v35.4C303.3,93,307.3,95.7,311,98.5L311,98.5z M291.1,96.3V39.9c32.6,17.3,53,42.1,53,69.5v56.4
		C344.1,138.4,323.7,113.6,291.1,96.3L291.1,96.3z"/>
	<path class="st1" d="M231.4,69.2V59.1c-2.5-0.5-5-0.9-7.6-1.3v10.2C226.3,68.3,228.9,68.8,231.4,69.2L231.4,69.2z M217.8,56.8l0-9
		c-2.6-0.4-5.2-0.7-7.8-1v9C212.6,56.1,215.2,56.5,217.8,56.8L217.8,56.8z M244.4,61.9V49.6c-2.4-0.6-4.8-1.2-7.3-1.7v12.3
		C239.6,60.8,242,61.3,244.4,61.9L244.4,61.9z M203.7,55.3V37.1c-2.7-0.2-5.3-0.4-8-0.6v18.1C198.4,54.8,201.1,55,203.7,55.3
		L203.7,55.3z M174.5,54.2V36.1c-2.7,0-5.5,0.1-8.2,0.2v18.1C169.1,54.4,171.8,54.3,174.5,54.2L174.5,54.2z M160.1,54.8V32
		c-2.7,0.2-5.3,0.4-8,0.6v22.8C154.7,55.2,157.4,55,160.1,54.8L160.1,54.8z M189.3,54.4V28.3c-2.4-0.1-4.9-0.1-7.4-0.2
		c-0.3,0-0.6,0-0.9,0v26.1c0.3,0,0.6,0,0.9,0C184.4,54.2,186.8,54.3,189.3,54.4L189.3,54.4z M145.9,56.1V23.5
		c-2.6,0.3-5.2,0.6-7.7,1v32.6C140.7,56.7,143.3,56.4,145.9,56.1L145.9,56.1z M121.6,20.7c18.8-4,39.1-6.1,60.3-5.9
		c28.3,0.3,54.9,4.6,77.9,12.1v56.4c-23.1-7.4-49.6-11.8-77.9-12.1C160.7,71,140.3,73,121.6,77V20.7L121.6,20.7z"/>
	<path class="st1" d="M25.7,97.1V85.8c-3.4,4.9-6.1,9.9-8,15.1v33.6c1.9-5.2,4.6-10.3,8-15.1v-11.4c1-1.4,2-2.8,3.1-4.2v6.1
		c2.1-2.6,4.3-5.1,6.8-7.6l0-6.1c10.6-10.7,24.8-20.1,41.6-27.6V57.7c-3,1.3-5.9,2.7-8.7,4.2c-1.4,0.7-2.8,1.5-4.2,2.2
		c-10.8,6-20.1,12.8-27.8,20.3c-0.3,0.3-0.6,0.6-1,1l0-6.1c-2.5,2.5-4.7,5-6.8,7.6V93C27.7,94.3,26.6,95.7,25.7,97.1L25.7,97.1z
		 M15.4,96.8C21.9,69.3,48.8,45.6,87,30.8v56.4c-38.2,14.7-65.2,38.4-71.6,66V96.8L15.4,96.8z"/>
	<path class="st2" d="M35.5,85.4c0.3-0.3,0.6-0.6,1-1v10.9c5.7-5.6,12.4-10.8,19.9-15.6c2.5-1.6,5.2-3.2,7.9-4.7V64.2
		c1.4-0.8,2.7-1.5,4.2-2.2v10.9c2.8-1.5,5.7-2.9,8.7-4.2V57.7v10.9c-16.8,7.6-30.9,16.9-41.6,27.6V85.4L35.5,85.4z M25.7,97.1
		c1-1.4,2-2.8,3.1-4.2v10.9c-1.1,1.4-2.1,2.8-3.1,4.2V97.1L25.7,97.1z"/>
	<path class="st3" d="M68.4,61.9c2.8-1.5,5.7-2.9,8.7-4.2v10.9c-3,1.3-5.9,2.7-8.7,4.2V61.9L68.4,61.9z"/>
	<path class="st3" d="M36.5,84.4c5.7-5.6,12.4-10.8,19.9-15.6v10.9c-7.5,4.8-14.2,10-19.9,15.6V84.4L36.5,84.4z"/>
	<path class="st4" d="M56.3,68.8c2.5-1.6,5.2-3.2,7.9-4.7v10.9c-2.7,1.5-5.4,3.1-7.9,4.7V68.8L56.3,68.8z"/>
	<path class="st2" d="M17.6,100.9c1.9-5.2,4.6-10.3,8-15.1v11.4c-3.4,4.9-6.1,9.9-8,15.1v10.9c1.9-5.2,4.6-10.3,8-15.1v11.4
		c-3.4,4.9-6.1,9.9-8,15.1V100.9L17.6,100.9z"/>
	<path class="st3" d="M17.6,112.3c1.9-5.2,4.6-10.3,8-15.1v10.9c-3.4,4.9-6.1,9.9-8,15.1V112.3L17.6,112.3z"/>
	<path class="st2" d="M28.8,103.9c2.1-2.6,4.3-5.1,6.8-7.6l0,6.1c-2.5,2.5-4.7,5-6.8,7.6V103.9L28.8,103.9z M28.8,86.9
		c2.1-2.6,4.3-5.1,6.8-7.6l0,6.1c-2.5,2.5-4.7,5-6.8,7.6V86.9L28.8,86.9z"/>
	<path class="st3" d="M28.8,93c2.1-2.6,4.3-5.1,6.8-7.6l0,10.9c-2.5,2.5-4.7,5-6.8,7.6V93L28.8,93z"/>
	<path class="st2" d="M330.3,82c8,10.5,12.8,22,13.6,34.1v35.4c-0.8-12.1-5.6-23.6-13.6-34.1V82L330.3,82z"/>
	<path class="st5" d="M316.8,67.8c3.4,3,6.6,6.1,9.4,9.2l0,35.4c-2.8-3.2-6-6.3-9.4-9.2V67.8L316.8,67.8z"/>
	<path class="st2" d="M299.1,55c4.2,2.6,8.2,5.3,12,8.1v35.4c-3.7-2.8-7.7-5.6-12-8.1V55L299.1,55z"/>
	<path class="st2" d="M237.2,48c2.4,0.5,4.9,1.1,7.3,1.7v12.3c-2.4-0.6-4.8-1.2-7.3-1.7V48L237.2,48z"/>
	<path class="st2" d="M223.8,57.7c2.5,0.4,5.1,0.9,7.6,1.3v10.2c-2.5-0.5-5-0.9-7.6-1.3V57.7L223.8,57.7z"/>
	<path class="st2" d="M210,46.8c2.6,0.3,5.2,0.6,7.8,1l0,9c-2.6-0.4-5.2-0.7-7.8-1V46.8L210,46.8z"/>
	<path class="st2" d="M195.7,36.5c2.7,0.2,5.4,0.3,8,0.6v18.1c-2.7-0.2-5.3-0.4-8-0.6V36.5L195.7,36.5z"/>
	<path class="st2" d="M181,28.1c0.3,0,0.6,0,0.9,0c2.5,0,4.9,0.1,7.4,0.2v26.1c-2.4-0.1-4.9-0.1-7.4-0.2c-0.3,0-0.6,0-0.9,0V28.1
		L181,28.1z"/>
	<path class="st5" d="M166.4,36.3c2.7-0.1,5.4-0.2,8.2-0.2v18.1c-2.7,0-5.5,0.1-8.2,0.2V36.3L166.4,36.3z"/>
	<path class="st2" d="M152.1,32.6c2.6-0.2,5.3-0.5,8-0.6v22.8c-2.7,0.2-5.3,0.4-8,0.6V32.6L152.1,32.6z"/>
	<path class="st5" d="M138.2,24.5c2.6-0.4,5.1-0.7,7.7-1v32.6c-2.6,0.3-5.2,0.6-7.7,1V24.5L138.2,24.5z"/>
</g>
<g>
	<g>
		<path class="st6" d="M233.3,270.3c0,2.8-2.3,5.1-5.1,5.1c-2.8,0-5.1-2.3-5.1-5.1c0-2.8,2.3-5.1,5.1-5.1
			C231,265.3,233.3,267.6,233.3,270.3z"/>
		<path class="st6" d="M283.2,213.7c0,2.8-2.3,5.1-5.1,5.1c-2.8,0-5.1-2.3-5.1-5.1c0-2.8,2.3-5.1,5.1-5.1
			C280.9,208.7,283.2,210.9,283.2,213.7z"/>
		<circle class="st6" cx="289" cy="252.4" r="5.1"/>
		<g>
			<path class="st6" d="M184.6,242.9c0,2.8-2.3,5.1-5.1,5.1c-2.8,0-5.1-2.3-5.1-5.1c0-2.8,2.3-5.1,5.1-5.1
				C182.4,237.8,184.6,240.1,184.6,242.9z"/>
			<path class="st6" d="M216,208.6c0,2.8-2.3,5.1-5.1,5.1c-2.8,0-5.1-2.3-5.1-5.1c0-2.8,2.3-5.1,5.1-5.1
				C213.7,203.6,216,205.8,216,208.6z"/>
			<g>
				<linearGradient id="SVGID_2_" gradientUnits="userSpaceOnUse" x1="234.8149" y1="227.6423" x2="143.0223" y2="250.0454">
					<stop  offset="0" style="stop-color:#C2D757"/>
					<stop  offset="0.1779" style="stop-color:#C5D95C"/>
					<stop  offset="0.3876" style="stop-color:#CEDF6A"/>
					<stop  offset="0.6134" style="stop-color:#DCE882"/>
					<stop  offset="0.849" style="stop-color:#F0F5A3"/>
					<stop  offset="1" style="stop-color:#FFFFBC"/>
				</linearGradient>
				<path class="st7" d="M235.4,227.4l-55.7,10.7c-0.2,0-0.5,0.1-0.7,0.1l0-0.4l-2.7-0.7v3.2l0,0c0,0.1,0,0.2,0,0.4
					c0.3,1.2,2.4,2.1,4.5,1.9l55.7-10.7L235.4,227.4z"/>
				<linearGradient id="SVGID_3_" gradientUnits="userSpaceOnUse" x1="235.5001" y1="219.4488" x2="337.12" y2="219.4488">
					<stop  offset="0" style="stop-color:#C2D757"/>
					<stop  offset="0.1779" style="stop-color:#C5D95C"/>
					<stop  offset="0.3876" style="stop-color:#CEDF6A"/>
					<stop  offset="0.6134" style="stop-color:#DCE882"/>
					<stop  offset="0.849" style="stop-color:#F0F5A3"/>
					<stop  offset="1" style="stop-color:#FFFFBC"/>
				</linearGradient>
				<path class="st8" d="M282.1,208.3l-1.7,1.4c-1.5-0.6-3.7-0.5-5.2,0.4l-39.7,17.3l5.6,3.2l39.7-17.3c0.9-0.5,1.4-1.2,1.3-1.9l0,0
					V208.3z"/>
				<linearGradient id="SVGID_4_" gradientUnits="userSpaceOnUse" x1="224.044" y1="217.2596" x2="200.2919" y2="194.3002">
					<stop  offset="0" style="stop-color:#C2D757"/>
					<stop  offset="0.1779" style="stop-color:#C5D95C"/>
					<stop  offset="0.3876" style="stop-color:#CEDF6A"/>
					<stop  offset="0.6134" style="stop-color:#DCE882"/>
					<stop  offset="0.849" style="stop-color:#F0F5A3"/>
					<stop  offset="1" style="stop-color:#FFFFBC"/>
				</linearGradient>
				<path class="st9" d="M214.6,204.4c-1-1.1-3.3-1.6-5.3-1l0,0c-0.2,0.1-0.4,0.1-0.6,0.2c-0.1-0.2-0.2-0.3-0.3-0.4
					c-0.4-0.4-1.2-0.8-1.2-0.8l0,3.1c0,0,0,0,0,0c0,0.3,0.1,0.7,0.4,1l25.6,23.4l7-2.1L214.6,204.4z"/>
				<linearGradient id="SVGID_5_" gradientUnits="userSpaceOnUse" x1="236.7364" y1="240.21" x2="324.9736" y2="240.21">
					<stop  offset="0" style="stop-color:#C2D757"/>
					<stop  offset="0.1779" style="stop-color:#C5D95C"/>
					<stop  offset="0.3876" style="stop-color:#CEDF6A"/>
					<stop  offset="0.6134" style="stop-color:#DCE882"/>
					<stop  offset="0.849" style="stop-color:#F0F5A3"/>
					<stop  offset="1" style="stop-color:#FFFFBC"/>
				</linearGradient>
				<path class="st10" d="M292.7,247.1l-0.9,0.3l-0.5,1.1c-0.2-0.1-0.4-0.2-0.7-0.2l-50.3-20.4l-3.6,4l50.3,20.4
					c1.9,0.6,4.3,0.1,5.3-1v0c0.3-0.3,0.4-0.7,0.4-1.1l0,0L292.7,247.1z"/>
				<linearGradient id="SVGID_6_" gradientUnits="userSpaceOnUse" x1="224.3899" y1="250.1378" x2="241.0197" y2="250.1378">
					<stop  offset="0" style="stop-color:#C2D757"/>
					<stop  offset="0.1779" style="stop-color:#C5D95C"/>
					<stop  offset="0.3876" style="stop-color:#CEDF6A"/>
					<stop  offset="0.6134" style="stop-color:#DCE882"/>
					<stop  offset="0.849" style="stop-color:#F0F5A3"/>
					<stop  offset="1" style="stop-color:#FFFFBC"/>
				</linearGradient>
				<path class="st11" d="M233.3,229.9l-8.3,35.4l-0.6-0.3l0,3.3l0,0c0.1,1,1.4,1.9,3.3,2.1c2.1,0.2,4.2-0.6,4.5-1.9l8.8-37.8
					L233.3,229.9z"/>
				<linearGradient id="SVGID_7_" gradientUnits="userSpaceOnUse" x1="229.7755" y1="233.6299" x2="346.0693" y2="233.6299">
					<stop  offset="0" style="stop-color:#F6F0BF"/>
					<stop  offset="0.2351" style="stop-color:#F5EFC4"/>
					<stop  offset="0.5123" style="stop-color:#F2EED2"/>
					<stop  offset="0.8094" style="stop-color:#EDEBEA"/>
					<stop  offset="1" style="stop-color:#E9E9FD"/>
				</linearGradient>
				<path class="st12" d="M290.6,245.1l-46.6-18.9l36.8-16c1.6-1,1.8-2.4,0.4-3.2l-0.4-0.2c-1.4-0.8-3.9-0.7-5.6,0.2l-36.8,16
					l-23.8-21.7c-1-1.1-3.3-1.6-5.3-1l0,0c-1.9,0.6-2.7,1.9-1.7,3l23.8,21.7l-51.7,10c-2.1,0.2-3.6,1.4-3.3,2.6
					c0.3,1.2,2.4,2.1,4.5,1.9l51.7-10l-8.2,35.1c-0.3,1.2,1.1,2.4,3.3,2.6c2.1,0.2,4.2-0.6,4.5-1.9l8.2-35.1l46.6,18.9
					c1.9,0.6,4.3,0.1,5.3-1S292.5,245.7,290.6,245.1z M239,226.2l-0.9,1l-1.9-0.2l-0.3-1.1l1.7-0.5L239,226.2z"/>
			</g>
			<path class="st6" d="M237.3,229.1L237.3,229.1c-2.2,0-4.1-1.8-4.1-4.1V178h8.1v47.1C241.4,227.3,239.6,229.1,237.3,229.1z"/>
		</g>
	</g>
	<g>
		<linearGradient id="SVGID_8_" gradientUnits="userSpaceOnUse" x1="171.7262" y1="130.2719" x2="215.7273" y2="130.2719">
			<stop  offset="0" style="stop-color:#E8E042"/>
			<stop  offset="0.311" style="stop-color:#E3DF45"/>
			<stop  offset="0.6769" style="stop-color:#D5DB4D"/>
			<stop  offset="1" style="stop-color:#C2D757"/>
		</linearGradient>
		<path class="st13" d="M174.7,141.7l-0.9-0.5c-3.2-1.8-2.8-5,0.9-7.1l25.7-14.8c3.6-2.1,9.2-2.3,12.3-0.5l0.9,0.5
			c3.2,1.8,2.8,5-0.9,7.1L187,141.2C183.4,143.3,177.9,143.6,174.7,141.7z"/>
		<linearGradient id="SVGID_9_" gradientUnits="userSpaceOnUse" x1="171.7261" y1="132.4535" x2="215.7273" y2="132.4535">
			<stop  offset="0" style="stop-color:#E8E042"/>
			<stop  offset="0.311" style="stop-color:#E3DF45"/>
			<stop  offset="0.6769" style="stop-color:#D5DB4D"/>
			<stop  offset="1" style="stop-color:#C2D757"/>
		</linearGradient>
		<path class="st14" d="M215.7,122.1L215.7,122.1c-0.1-1.1-0.8-2.1-2.1-2.8l-0.9-0.5c-3.2-1.8-8.7-1.6-12.3,0.5l-25.7,14.8
			c-1.9,1.1-2.9,2.5-3,3.9l0,0l0,4.5l0,0c0,1.2,0.7,2.3,2.1,3.1l0.9,0.5c3.2,1.8,8.7,1.6,12.3-0.5l25.7-14.8c1.9-1.1,2.9-2.4,3-3.8
			l0,0V122.1z"/>
	</g>
	<g>
		<path class="st15" d="M229.1,162.4l-53.8,31c-2.7,1.5-4.8-0.1-4.8-3.6l0,0c0-3.6,2.2-7.7,4.8-9.2l61.6-35.6v2.4
			C236.9,153.2,233.4,159.9,229.1,162.4z"/>
		<g class="st16">
			<linearGradient id="SVGID_10_" gradientUnits="userSpaceOnUse" x1="267.6426" y1="57.9594" x2="225.869" y2="165.4568">
				<stop  offset="0" style="stop-color:#E8E042"/>
				<stop  offset="0.311" style="stop-color:#E3DF45"/>
				<stop  offset="0.6769" style="stop-color:#D5DB4D"/>
				<stop  offset="1" style="stop-color:#C2D757"/>
			</linearGradient>
			<path class="st17" d="M233.1,29.8L233.1,29.8c-1.9-1-4.3-0.9-6.9,0.6l-1.6,0.9c-5.9,3.4-10.8,12.7-10.8,20.6v106.4l14.3-8.3v3.4
				l-17.1,14l-39,26.1l54.8,31l31.5-24.2l17.9-15.3l11.2-124.5L233.1,29.8z"/>
		</g>
	</g>
	<path class="st18" d="M193,205.5c0,0-1.5-3.9,1.4-6.7c2.9-2.9,18-9.2,19.1-9.9c1.1-0.7,6.5-4.7,6.5-4.7l1.7-3.7
		c0,0-30.7,3-31.1,3.5c-0.4,0.5-14.4,13-14,13.6c0.4,0.5,9.6,2.8,9.6,2.8l1.8,2.4L193,205.5z"/>
	<linearGradient id="SVGID_11_" gradientUnits="userSpaceOnUse" x1="224.9679" y1="142.4282" x2="291.4381" y2="142.4282">
		<stop  offset="0" style="stop-color:#E8E042"/>
		<stop  offset="0.311" style="stop-color:#E3DF45"/>
		<stop  offset="0.6769" style="stop-color:#D5DB4D"/>
		<stop  offset="1" style="stop-color:#C2D757"/>
	</linearGradient>
	<path class="st19" d="M280.7,61.3l-1.6,0.9c-5.9,3.4-10.8,12.7-10.8,20.6v106.4l-38.5,22.2c-2.7,1.5-4.8,5.7-4.8,9.2v0
		c0,3.6,2.2,5.2,4.8,3.6l53.8-31c4.3-2.5,7.8-9.2,7.8-15v-2.4V69.4C291.4,61.5,286.6,57.9,280.7,61.3z"/>
	<g>
		<g>
			<path class="st20" d="M178.4,228.5c0,0-7.9,5.1-10.6,8.1c-2.7,3-8,9.1-5.8,12.1c2.2,2.9,9.6,4.6,17.5-2.7
				c7.9-7.3,5.7-7.7,12.4-11.4c6.8-3.6,8.6-7.6,7.8-9.8c-0.8-2.3-4.2-6.2-6-5.4C191.9,220.3,178.4,228.5,178.4,228.5z"/>
			<path class="st20" d="M217,249.9c0,0-2.8,6.3-4.3,8.3c-1.5,2.1-8.6,14.1-4.9,16.8c3.7,2.8,10.8,2,16.3-4.1
				c5.6-6,6.8-13.4,8.2-15.8c1.4-2.4,4.8-8.9,3.2-12.6c-1.6-3.7-2-4.4-2-4.4L217,249.9z"/>
			<path class="st6" d="M188.2,160.7c0,0-23.6,23.2-27.4,34.9c0,0-1.6,6.3,2.9,11.3c4.6,4.9,14.2,21.1,14.2,21.1s7.2,8.7,16.5,1.7
				c0,0,4.2-6.7,1.6-11.2c-2.6-4.5-9.5-18.8-9.5-18.8s15.1-10.4,22.6-13c7.5-2.6,11.4-4.7,11.4-4.7s-1.4,7-6.8,13.9
				c-5.5,6.9-14.6,17.9-11.5,25.6c3,7.7,4.8,10,7.7,14.5c2.9,4.4,5.6,13.6,8,14.6c2.4,1,13.7,2.1,15.5-5.3
				c1.8-7.3-3.8-21.6-6.4-26.4c0,0,30.5-35.1,33.4-39C263.3,176.1,197.6,154.8,188.2,160.7z"/>
			<path class="st20" d="M196.1,218.5c-2.6-4.5-9.5-18.8-9.5-18.8s15.1-10.4,22.6-13c7.5-2.6,11.4-4.7,11.4-4.7
				c1.4-2,6.1-9.5,8.1-15.5c-17.2-5-35.8-8.8-40.5-5.9c1.7,4.1,10.4,4.1,10.4,4.1s3.3,8,5.4,9c2.2,1,7.4-0.1,7.4-0.1s-0.8,1.3-4.5,4
				c-3.7,2.7-26.9,21.7-26.9,21.7s1.3,0.8,7.5,11.9c6.2,11.2,7,18.5,7,18.5S198.6,223,196.1,218.5z"/>
			<path class="st20" d="M248.1,173.1c-13.6-1.3-29.5-1.4-25.9,5.7c6.1,12.1,18.2,12.7,18.2,12.7c-0.1,4.5-18.8,26-18.8,26
				s0,0,4.4,8.5c4.4,8.5,3.8,23.9,3.8,23.9c1.7-0.9,3-2.3,3.5-4.5c1.8-7.3-3.8-21.6-6.4-26.4c0,0,30.5-35.1,33.4-39
				C261.2,178.8,256.1,176.1,248.1,173.1z"/>
			<path class="st21" d="M164.3,98.8L168,96c0,0,19.5-10.8,26-14.4c3.5-1.9,7.2-5.3,9.8-8c2.5-2.7,6.1-4.1,9.7-4.2l34.2-0.2
				c0,0,4,6.4,5.3,7.6c1,0.9,10.3,8.7,16.9,15.1c3.7,3.5,6.4,8,7.8,12.9c3.8,13.4,3.8,40.5,4.3,59.9c0,0-2.4,0.9-8.2,2.2
				c-5.8,1.2-5.1,0.4-5.1,0.4s-8.7,19.6-20.6,21.5c-11.8,1.9-27.8-3.6-30.6-22.2c0,0-23.1-3.5-29.4-6c-0.6-0.2-0.8-0.9-0.4-1.4
				c2.8-3.7,13.2-18.1,14.2-27.4c1.1-10.8,0.8-26.5-0.1-30.8c0,0-17.4,6.6-23,7.7c0,0-21.2,23.3-30.1,29.6c0,0,3-4.8-3.1-8
				L164.3,98.8z"/>
			<path class="st6" d="M273.9,167c0.9-0.2,1.7-0.4,2.4-0.5l-1.2-2.4l-32.1-3.4l-18.8,1l-6.5,6.1c0.4,2,0.9,3.8,1.5,5.5
				c0,0,8,1.1,11.7,0.4c3.7-0.8,32.3,3.4,32.3,3.4c3.2-4.6,5.2-9,5.5-9.5C268.7,167.6,269.1,168,273.9,167z"/>
			<path class="st22" d="M230.5,155.8c0-0.1-0.1-0.2-0.3-0.2c-1.5,0-11.6-0.3-15.4-1.6c-4.1-1.4-8.5-1.2-8.7-0.9
				c-0.2,0.2-7.1,3.1-7.5,4.3c-0.4,1-1,4.7-0.1,6c0.9,1.3,1.3,2.2,1.3,2.2l0.7,0.1c0,0,0.9,1.8,1.4,2.5c0.2,0.3,0.4,0.6,0.6,0.9
				c0.4,0.9,1.2,2.5,1.5,2.5c0.5,0,2.6,0.5,3.1,0.3c0.4-0.1,0.8-1.5,0.7-2.1c0-0.2,0-0.3,0.2-0.3c1-0.2,3.6-0.5,7.3-0.2
				c4.5,0.4,10.8-2.5,11.4-2.8c0,0,0.1,0,0.1,0l6.3-0.6c0.2,0,0.3-0.2,0.2-0.4L230.5,155.8z"/>
			<path class="st23" d="M222.9,89.4c0,0-5.4,19.8,0.3,40c0,0,20.6-38.5,22.9-44.7c2.2-6.2,3-10.7,1-12.9
				c-2.1-2.2-20.7,9.3-20.7,9.3L222.9,89.4z"/>
			<path class="st24" d="M228.3,120.4c0,0,3.9-12,3.2-15.9c-0.7-3.9-1.7-6.7-1.7-6.7l3.5-3.3l1.6,3.2c0,0,7.8-5.7,8.3-6.8
				c0,0-6.3,4.3-8.3,5c0,0-0.9-1.5-2.2-2.1c-1.2-0.5-4.3,3.7-4.3,3.7l-0.6,7.3l-3.1,17l1.1,2.5L228.3,120.4z"/>
			<path class="st6" d="M224.8,89.6c0,0-0.7,7.8-0.1,8.3c0.6,0.5,3,0.6,4.2,0c1.1-0.6,4-4,4-4S229.3,87.7,224.8,89.6z"/>
			<path class="st6" d="M229,96.5c0,0,2.1,5.4,0.1,12.8c-2,7.4-2.8,14.4-2.8,14.4l-3.1,5.7c0,0-3.8-11.2-2.6-22.5
				c0.6-5.1,4.4-9.6,4.4-9.6L229,96.5z"/>
			<path class="st22" d="M213.3,57.9c0,0-0.9,4.8-0.6,5.7c0.3,0.9,1.6,1.5,1.3,3.4c-0.3,1.9,0.8,7.5,1.3,9.3c0,0-0.4,2,0.2,2.6
				c0.6,0.6,1.3,0.6,1.8,1.5c0.5,0.9,0.7,5.8,2.7,7.4s4.5,2,5.8,1.6c1.3-0.4,2.7-1.4,2.7-1.4l3,1.2c0,0,15.3-4.3,14.9-15.1l0-1.1
				c0,0,1.1-1.5,1.4-2.5c0.3-1,2.9-5.5,1.6-7.4c0,0,5.9-23.4-12.4-24.9C218.5,36.9,215.8,49.8,213.3,57.9z"/>
			<path class="st25" d="M246.3,74.3l0-0.1c-0.8-0.5-1.5-0.7-2.1-0.6c-2.1,0.4-1.6-4-1.6-4s-0.4,0.8-1.5,6.3
				c-1.1,5.6-12.6,12.3-12.6,12.3l3,1.2C231.4,89.4,246.7,85,246.3,74.3z"/>
			<path class="st26" d="M213.4,47.7c-1.8,3.8-2.6,8.4,1.1,11.4c0,0,3.1,0.9,9.1-1.9c4-1.9,8.1-1,10.3-0.3c1,0.3,1.7,1.3,1.7,2.4
				l-0.1,3.3c0,0.9,0.5,1.7,1.3,2l2.8,1.2l0.6,3.2c0.2,1,1.1,1.5,2.1,1.2l0.7-0.3c0,0,0.4-7.2,6.4-6.9c0,0,4.8-10.4-0.1-20
				c-4.9-9.5-18.5-8.9-21.4-7.8c-3.8,1.4-3.3,1.2-5.5,2.6C218.5,40.4,215.3,43.7,213.4,47.7z"/>
			<path class="st6" d="M262.1,121.3c0,0-2.8,20.5-3.9,26.2l-9,4.7l15.9-1L262.1,121.3z"/>
			<path class="st27" d="M249.2,63.2c0,0,1.6-3.5,2-8.4c-7.4,5.9-15.7,4.5-15.7,4.5l-0.1,3.3c0,0.9,0.5,1.7,1.3,2l2.8,1.2l0.6,3.2
				c0.2,1,1.1,1.5,2.1,1.2l0.7-0.3C242.8,70,243.3,62.8,249.2,63.2z"/>
			<path class="st6" d="M253.2,81.2c0,0-4.7,16.3-5.7,19.4l-3.8-0.4l0.7,5.2l-20.6,27.1l22.8-26.2l-0.9-4.6l3.5,0.4L253.2,81.2z"/>
			<path class="st28" d="M233,169.7c0,0,48.2-1.6,49.5-2.4c1.2-0.9,1.4-13.3,1.3-20.5c-0.1-5,0-24.8-4.3-38.6
				c3.4,11.7,1.6,53.2,0.1,55.3c-1.5,2.1-47.4,3.3-47.4,3.3l0,0C232.6,168.5,233,169.7,233,169.7z"/>
			<path class="st22" d="M138.2,131.2c0,0-0.2,1.2-2.3,2.4c-2.1,1.2-7.5,3.8-8.3,4.6c-0.9,0.8-4.7,4.2-4.9,4.6
				c-0.1,0.4-1.3,4.3-1.3,4.5c0,0.2,0.4,2,0.4,2l-1.2,5.7c0,0-1.5,2.2,0.1,2.8c1.6,0.6,2.6-1.1,2.6-1.4c0,0,2.5-1.2,4.3-2.6
				c1.8-1.4,9.1-7.3,10.4-6.9c1.2,0.4,0.1,2.5-0.5,2.8c-0.6,0.4-4.5,4.2-2.9,6.8c1.6,2.6,2.7-1.5,3.8-2.3c1.1-0.8,3.4-4.1,4.8-4.5
				c1.4-0.4,4-5.7,4.3-8.1c0.3-2.4,2-3.9,2.6-4.7c0.6-0.8-1.3-6.7-1.3-6.7l-7.2-2.3l-2.5,1.7L138.2,131.2z"/>
		</g>
	</g>
	<g>
		<defs>
			<path id="SVGID_12_" d="M248.4,184.1l-0.9-0.5c-3.2-1.8-2.8-5,0.9-7.1l25.7-14.8c3.6-2.1,9.2-2.3,12.3-0.5l0.9,0.5
				c3.2,1.8,2.8,5-0.9,7.1l-25.7,14.8C257.1,185.7,251.6,185.9,248.4,184.1z"/>
		</defs>
		<clipPath id="SVGID_13_">
			<use xlink:href="#SVGID_12_"  style="overflow:visible;"/>
		</clipPath>
		<path class="st29" d="M275.9,100.1c-1.5-2.4-2.2-0.6-4.2,1.3c-2.7,2.7-6.2,6.8-8,12c-3.2,9.5-2.1,33.3-1,36.7
			c0,0-30.2,4.9-32.3,4.9c-2.1-0.1,2.6,14.8,2.6,14.8s48.2-1.6,49.5-2.4c1.2-0.9,1.4-13.3,1.3-20.5
			C283.7,140.7,283.8,112.5,275.9,100.1z"/>
		<path class="st30" d="M233,169.7c0,0,48.2-1.6,49.5-2.4c1.2-0.9,1.4-13.3,1.3-20.5c-0.1-5,0-24.8-4.3-38.6
			c3.4,11.7,1.6,53.2,0.1,55.3c-1.5,2.1-47.4,3.3-47.4,3.3l0,0C232.6,168.5,233,169.7,233,169.7z"/>
	</g>
	<g>
		<linearGradient id="SVGID_14_" gradientUnits="userSpaceOnUse" x1="40.6482" y1="179.4624" x2="282.2865" y2="179.4624">
			<stop  offset="0" style="stop-color:#E8E042"/>
			<stop  offset="0.311" style="stop-color:#E3DF45"/>
			<stop  offset="0.6769" style="stop-color:#D5DB4D"/>
			<stop  offset="1" style="stop-color:#C2D757"/>
		</linearGradient>
		<polygon class="st31" points="197.9,249.2 40.6,158.4 125.1,109.7 282.3,200.5 		"/>
		<linearGradient id="SVGID_15_" gradientUnits="userSpaceOnUse" x1="40.6482" y1="200.0696" x2="282.2865" y2="200.0696">
			<stop  offset="0" style="stop-color:#E8E042"/>
			<stop  offset="0.311" style="stop-color:#E3DF45"/>
			<stop  offset="0.6769" style="stop-color:#D5DB4D"/>
			<stop  offset="1" style="stop-color:#C2D757"/>
		</linearGradient>
		<polygon class="st32" points="40.6,150.9 40.6,158.4 197.9,249.2 282.3,200.5 282.3,192.9 197.9,241.7 		"/>
		<linearGradient id="SVGID_16_" gradientUnits="userSpaceOnUse" x1="40.6482" y1="171.9353" x2="282.2865" y2="171.9353">
			<stop  offset="0" style="stop-color:#E8E042"/>
			<stop  offset="0.311" style="stop-color:#E3DF45"/>
			<stop  offset="0.6769" style="stop-color:#D5DB4D"/>
			<stop  offset="1" style="stop-color:#C2D757"/>
		</linearGradient>
		<polygon class="st33" points="197.9,241.7 40.6,150.9 125.1,102.2 282.3,192.9 		"/>
	</g>
	<path class="st34" d="M207.1,171c0,0,6,2.2,10.7,1.4c4.6-0.8,26.8-1.2,26.8-1.2l-3.5-2l-7.8-5.4L214,165l-7.4,2.7L207.1,171z"/>
	<path class="st22" d="M230.5,155.8c0-0.1-0.1-0.2-0.3-0.2c-1.5,0-11.6-0.3-15.4-1.6c-4.1-1.4-8.5-1.2-8.7-0.9
		c-0.2,0.2-7.1,3.1-7.5,4.3c-0.4,1-1,4.7-0.1,6c0.9,1.3,1.3,2.2,1.3,2.2l0.7,0.1c0,0,0.9,1.8,1.4,2.5c0.2,0.3,0.4,0.6,0.6,0.9
		c0.4,0.9,1.2,2.5,1.5,2.5c0.5,0,2.6,0.5,3.1,0.3c0.4-0.1,0.8-1.5,0.7-2.1c0-0.2,0-0.3,0.2-0.3c1-0.2,3.6-0.5,7.3-0.2
		c4.5,0.4,10.8-2.5,11.4-2.8c0,0,0.1,0,0.1,0l6.3-0.6c0.2,0,0.3-0.2,0.2-0.4L230.5,155.8z"/>
	<g>
		<linearGradient id="SVGID_17_" gradientUnits="userSpaceOnUse" x1="245.4385" y1="172.5952" x2="289.4398" y2="172.5952">
			<stop  offset="0" style="stop-color:#E8E042"/>
			<stop  offset="0.311" style="stop-color:#E3DF45"/>
			<stop  offset="0.6769" style="stop-color:#D5DB4D"/>
			<stop  offset="1" style="stop-color:#C2D757"/>
		</linearGradient>
		<path class="st35" d="M248.4,184.1l-0.9-0.5c-3.2-1.8-2.8-5,0.9-7.1l25.7-14.8c3.6-2.1,9.2-2.3,12.3-0.5l0.9,0.5
			c3.2,1.8,2.8,5-0.9,7.1l-25.7,14.8C257.1,185.7,251.6,185.9,248.4,184.1z"/>
		<linearGradient id="SVGID_18_" gradientUnits="userSpaceOnUse" x1="245.4385" y1="174.7769" x2="289.4398" y2="174.7769">
			<stop  offset="0" style="stop-color:#E8E042"/>
			<stop  offset="0.311" style="stop-color:#E3DF45"/>
			<stop  offset="0.6769" style="stop-color:#D5DB4D"/>
			<stop  offset="1" style="stop-color:#C2D757"/>
		</linearGradient>
		<path class="st36" d="M289.4,164.4L289.4,164.4c-0.1-1.1-0.8-2.1-2.1-2.8l-0.9-0.5c-3.2-1.8-8.7-1.6-12.3,0.5l-25.7,14.8
			c-1.9,1.1-2.9,2.5-3,3.9l0,0l0,4.5l0,0c0,1.2,0.7,2.3,2.1,3.1l0.9,0.5c3.2,1.8,8.7,1.6,12.3-0.5l25.7-14.8c1.9-1.1,2.9-2.4,3-3.8
			l0,0V164.4z"/>
	</g>
	<path class="st37" d="M275.9,100.1c-1.5-2.4-2.2-0.6-4.2,1.3c-2.7,2.7-6.2,6.8-8,12c-3.2,9.5-2.1,33.3-1,36.7
		c0,0-30.2,4.9-32.3,4.9c-2.1-0.1,2.6,14.8,2.6,14.8s48.2-1.6,49.5-2.4c1.2-0.9,1.4-13.3,1.3-20.5
		C283.7,140.7,283.8,112.5,275.9,100.1z"/>
	<path class="st6" d="M233,169.7c0,0,48.2-1.6,49.5-2.4c1.2-0.9,1.4-13.3,1.3-20.5c-0.1-5,0-24.8-4.3-38.6
		c3.4,11.7,1.6,53.2,0.1,55.3c-1.5,2.1-47.4,3.3-47.4,3.3l0,0C232.6,168.5,233,169.7,233,169.7z"/>
	<path class="st34" d="M146.5,145c0,0,17.2-13.5,19.7-14.8c2.5-1.3,3.5-2.3,3.5-2.3l-5.8-3.3l-9.8,4l-12.3,12.2L123,154.3v3.1
		c0,0,15.6-6.7,17.4-7.8C142.1,148.4,146.5,145,146.5,145z"/>
	<path class="st38" d="M136.3,157.2c0,0,3.7-3.3,6-4.4c2.4-1.1,6.1-4,6.6-6.2c0.5-2.2,4.4-7.2,4.4-7.2l-6.3,3.6l-9.1,5.3l-15.1,8.8
		c0,0,0.9,1.1,2.8,0.4c1.9-0.7,5.5-2.9,7.2-3.2c1.7-0.2,4.5-0.7,4.5-0.7L136.3,157.2z"/>
	<path class="st22" d="M138.2,131.2c0,0-0.2,1.2-2.3,2.4c-2.1,1.2-7.5,3.8-8.3,4.6c-0.9,0.8-4.7,4.2-4.9,4.6
		c-0.1,0.4-1.3,4.3-1.3,4.5c0,0.2,0.4,2,0.4,2l-1.2,5.7c0,0-1.5,2.2,0.1,2.8c1.6,0.6,2.6-1.1,2.6-1.4c0,0,2.5-1.2,4.3-2.6
		c1.8-1.4,9.1-7.3,10.4-6.9c1.2,0.4,0.1,2.5-0.5,2.8c-0.6,0.4-4.5,4.2-2.9,6.8c1.6,2.6,2.7-1.5,3.8-2.3c1.1-0.8,3.4-4.1,4.8-4.5
		c1.4-0.4,4-5.7,4.3-8.1c0.3-2.4,2-3.9,2.6-4.7c0.6-0.8-1.3-6.7-1.3-6.7l-7.2-2.3l-2.5,1.7L138.2,131.2z"/>
	<g>
		<path class="st37" d="M203.6,91.4c0,0-0.3-10.8,1.6-19.1c-0.5,0.4-1,0.8-1.4,1.3c-2.6,2.7-6.3,6.1-9.8,8c-6.5,3.5-26,14.4-26,14.4
			l-3.6,2.8c-11.5,9-24.3,28.5-26.1,32.4c0.9-1.2,3.2-3.2,7.6-0.8c6.1,3.2,3.2,8.1,3.2,8.1c8.9-6.3,29.9-29.7,29.9-29.7
			c5.2-1.1,20.8-6.9,22.8-7.6C203,97.8,203.7,94.6,203.6,91.4z"/>
	</g>
</g>
<path class="st6" d="M179,108.7c5.6-1.2,23-7.7,23-7.7c0.8,3.9,1.1,17.6,0.3,28.1c5.1-19.2,1.4-37.7,1.4-37.7
	c-1.4,6.8-29,16.1-29,16.1c-4.4,6.8-25.3,26.3-25.3,26.3l0,0c0.9,2.4-0.4,4.5-0.4,4.5C157.8,132,179,108.7,179,108.7z"/>
<g>
	<g>
		<g>
			<g>
				<g>
					<g>
						
							<linearGradient id="SVGID_19_" gradientUnits="userSpaceOnUse" x1="130.0125" y1="177.9297" x2="255.0923" y2="177.9297" gradientTransform="matrix(-1 0 0 1 349.1631 0)">
							<stop  offset="0" style="stop-color:#C2D757"/>
							<stop  offset="0.1779" style="stop-color:#C5D95C"/>
							<stop  offset="0.3876" style="stop-color:#CEDF6A"/>
							<stop  offset="0.6134" style="stop-color:#DCE882"/>
							<stop  offset="0.849" style="stop-color:#F0F5A3"/>
							<stop  offset="1" style="stop-color:#FFFFBC"/>
						</linearGradient>
						<path class="st39" d="M94.1,165l4.2,2.2l42-24.2c0.7-0.4,1.9-0.4,2.7,0.1l72.4,41.8c0.7-0.4,3.8-1.9,3.8-1.9l-1.5,4
							c0,0,0,0,0,0c-0.1,0.2-0.2,0.3-0.4,0.5L173,212.9c-0.7,0.4-1.9,0.4-2.7-0.1l-74-42.7c-0.3-0.2-0.5-0.4-0.6-0.7l0,0L94.1,165z"
							/>
						
							<linearGradient id="SVGID_20_" gradientUnits="userSpaceOnUse" x1="172.0397" y1="173.7591" x2="297.1862" y2="173.7591" gradientTransform="matrix(-1 0 0 1 349.1631 0)">
							<stop  offset="0" style="stop-color:#F6F0BF"/>
							<stop  offset="0.2351" style="stop-color:#F5EFC4"/>
							<stop  offset="0.5123" style="stop-color:#F2EED2"/>
							<stop  offset="0.8094" style="stop-color:#EDEBEA"/>
							<stop  offset="1" style="stop-color:#E9E9FD"/>
						</linearGradient>
						<path class="st40" d="M94.7,165.7l75.9,43.8c0.8,0.5,2.1,0.5,2.8,0.1l45.3-26.1c0.7-0.4,0.6-1.1-0.2-1.6L142.6,138
							c-0.8-0.5-2.1-0.5-2.8-0.1l-45.3,26.1C93.8,164.5,93.9,165.2,94.7,165.7z"/>
						<path class="st41" d="M94.7,165.2l75.9,43.8c0.8,0.5,2.1,0.5,2.8,0.1l45.3-26.1c0.2-0.1,0.4-0.3,0.4-0.5
							c0.1,0.3,0,0.7-0.4,0.9l-45.3,26.1c-0.7,0.4-2,0.4-2.8-0.1l-75.9-43.8c-0.6-0.3-0.8-0.8-0.6-1.1
							C94.2,164.8,94.4,165,94.7,165.2z"/>
						<path class="st42" d="M193.5,200v-0.8c0-0.1,0-0.1-0.1-0.1l-2.9,1.7c-0.1,0-0.1,0.1-0.1,0.2v0.8c0,0.1,0,0.1,0.1,0.1l2.9-1.7
							C193.4,200.2,193.5,200.1,193.5,200z"/>
						<path class="st42" d="M189.1,202.5v-0.8c0-0.1,0-0.1-0.1-0.1l-2.9,1.7c-0.1,0-0.1,0.1-0.1,0.2v0.8c0,0.1,0,0.1,0.1,0.1
							l2.9-1.7C189.1,202.7,189.1,202.6,189.1,202.5z"/>
						<g>
							<path class="st43" d="M193.2,189.4L130.1,153c-0.4-0.2-0.9-0.2-1.4,0l-22.5,13c-0.3,0.2-0.3,0.7,0,0.8l63,36.4
								c0.4,0.2,0.9,0.2,1.4,0l22.5-13C193.5,190.1,193.5,189.6,193.2,189.4z"/>
							<path class="st44" d="M193.2,190.2l-0.2,0.1l-62.8-36.3c-0.4-0.2-0.9-0.2-1.4,0L106.5,167l-0.2-0.1c-0.3-0.2-0.3-0.7,0-0.8
								l22.5-13c0.4-0.2,0.9-0.2,1.4,0l63.1,36.4C193.5,189.6,193.5,190.1,193.2,190.2z"/>
							<g>
								<polygon class="st6" points="127,156.3 185.1,189.8 188,188.7 129.5,154.9 								"/>
								<polygon class="st6" points="121.1,159.7 172.5,189.4 174.9,188 123.5,158.3 								"/>
								<polygon class="st6" points="117.2,162 177.7,196.9 180.1,195.5 119.6,160.6 								"/>
								<polygon class="st6" points="113.3,164.2 173.8,199.2 176.2,197.7 115.7,162.8 								"/>
								<polygon class="st6" points="109.4,166.5 169.9,201.4 172.3,200 111.8,165.1 								"/>
								<polygon class="st6" points="185.1,189.8 187.6,191.2 190,189.8 187.6,188.4 								"/>
								<polygon class="st6" points="169.5,187.7 181.6,194.7 184,193.3 171.8,186.2 								"/>
							</g>
						</g>
						<g>
							
								<linearGradient id="SVGID_21_" gradientUnits="userSpaceOnUse" x1="163.9199" y1="164.1292" x2="195.9539" y2="164.1292" gradientTransform="matrix(-1 0 0 1 349.1631 0)">
								<stop  offset="0" style="stop-color:#F6F0BF"/>
								<stop  offset="0.2351" style="stop-color:#F5EFC4"/>
								<stop  offset="0.5123" style="stop-color:#F2EED2"/>
								<stop  offset="0.8094" style="stop-color:#EDEBEA"/>
								<stop  offset="1" style="stop-color:#E9E9FD"/>
							</linearGradient>
							<path class="st45" d="M170.7,173.1l-17-9.8c-0.7-0.4-0.7-1,0-1.4l11.6-6.7c0.7-0.4,1.7-0.4,2.4,0l17,9.8c0.7,0.4,0.7,1,0,1.4
								l-11.6,6.7C172.5,173.5,171.4,173.5,170.7,173.1z"/>
							<path class="st44" d="M184.7,165.6l-17-9.8c-0.7-0.4-1.7-0.4-2.4,0l-11.6,6.7c-0.2,0.1-0.3,0.3-0.4,0.4c-0.2-0.3,0-0.7,0.4-1
								l11.6-6.7c0.7-0.4,1.7-0.4,2.4,0l17,9.8c0.5,0.3,0.6,0.6,0.4,1C185.1,165.8,184.9,165.7,184.7,165.6z"/>
						</g>
					</g>
				</g>
			</g>
		</g>
	</g>
	<g>
		
			<linearGradient id="SVGID_22_" gradientUnits="userSpaceOnUse" x1="166.4247" y1="158.3564" x2="254.9876" y2="158.3564" gradientTransform="matrix(-1 0 0 1 349.1631 0)">
			<stop  offset="0" style="stop-color:#F6F0BF"/>
			<stop  offset="0.2351" style="stop-color:#F5EFC4"/>
			<stop  offset="0.5123" style="stop-color:#F2EED2"/>
			<stop  offset="0.8094" style="stop-color:#EDEBEA"/>
			<stop  offset="1" style="stop-color:#E9E9FD"/>
		</linearGradient>
		<path class="st46" d="M94.2,163.9l9.6-56.9l-0.8-0.3l1.2-0.7l0,0c0.2-0.1,0.5-0.1,0.9,0.1l76.7,44.3c0.6,0.4,1.1,1.3,1,1.9
			l-9.7,57.4c-0.1,0.3-0.2,0.5-0.4,0.6l0,0l-1.1,0.7l-0.2-1.1l0.1,0l-76.2-44C94.6,165.4,94.1,164.5,94.2,163.9z"/>
		
			<linearGradient id="SVGID_23_" gradientUnits="userSpaceOnUse" x1="166.4253" y1="181.0688" x2="181.6324" y2="181.0688" gradientTransform="matrix(-1 0 0 1 349.1631 0)">
			<stop  offset="0" style="stop-color:#C2D757"/>
			<stop  offset="0.1779" style="stop-color:#C5D95C"/>
			<stop  offset="0.3876" style="stop-color:#CEDF6A"/>
			<stop  offset="0.6134" style="stop-color:#DCE882"/>
			<stop  offset="0.849" style="stop-color:#F0F5A3"/>
			<stop  offset="1" style="stop-color:#FFFFBC"/>
		</linearGradient>
		<path class="st47" d="M181.3,151.9l1.3-0.6c0.1,0.3,0.2,0.7,0.2,0.9l-9.7,57.4c-0.1,0.3-0.2,0.5-0.4,0.6l0,0l-1.1,0.7l-0.2-1.1
			l0.1,0l-3.9-2.2L181.3,151.9z"/>
		<path class="st21" d="M94,166.5l76.7,44.3c0.6,0.3,1.1,0.1,1.2-0.5l9.7-57.4c0.1-0.7-0.4-1.6-1-1.9l-76.7-44.3
			c-0.6-0.3-1.1-0.1-1.2,0.5L93,164.6C92.9,165.2,93.4,166.1,94,166.5z"/>
	</g>
</g>
<g>
	<path class="st1" d="M66.4,226.7v-9.5c1.9,1,3.9,2,5.9,3v9.5C70.2,228.7,68.3,227.7,66.4,226.7L66.4,226.7z M47.6,214.7v-17.6
		c1.6,1.2,3.2,2.4,4.9,3.5v17.6C50.8,217.1,49.2,215.9,47.6,214.7L47.6,214.7z M56.6,220.9v-20.7c1.8,1.1,3.6,2.2,5.4,3.3v20.7
		C60.1,223.1,58.3,222,56.6,220.9L56.6,220.9z M32.6,201.2l0-23c1.2,1.3,2.5,2.7,3.8,4v23C35.1,203.8,33.8,202.5,32.6,201.2
		L32.6,201.2z M39.6,208.1v-24.9c1.4,1.3,2.9,2.5,4.4,3.7l0,24.9C42.5,210.7,41,209.4,39.6,208.1L39.6,208.1z M21.7,186.1v-27
		c0.8,1.5,1.7,2.9,2.6,4.3v27C23.4,189,22.5,187.6,21.7,186.1L21.7,186.1z M26.6,193.8v-35.1c1,1.4,2.1,2.8,3.2,4.2V198
		C28.7,196.6,27.6,195.2,26.6,193.8L26.6,193.8z M17.9,178.2v-39.6c0.6,1.5,1.2,3,2,4.5v39.6C19.2,181.2,18.5,179.7,17.9,178.2
		L17.9,178.2z M84.3,187c-37.7-15.2-63.8-39.2-69.2-66.7v56.4c5.5,27.5,31.5,51.5,69.2,66.7V187L84.3,187z"/>
	<path class="st1" d="M194.9,249.6v-12.7c6.5-0.4,12.9-0.9,19.1-1.7v12.7C207.7,248.7,201.4,249.2,194.9,249.6L194.9,249.6z
		 M164.4,249.7l0-23.2c3.9,0.2,7.8,0.3,11.8,0.4c2.7,0,5.4,0,8.1,0V250c-2.7,0-5.4,0.1-8.1,0C172.2,250,168.3,249.8,164.4,249.7
		L164.4,249.7z M135,246.6v-35.4c6.1,1,12.4,1.7,18.9,2.3v35.4C147.4,248.4,141.1,247.6,135,246.6L135,246.6z M224,246.5V209
		c6.1-1,12.1-2.2,17.9-3.5v37.4C236.1,244.3,230.1,245.5,224,246.5L224,246.5z M256.9,192.9c-24,7.4-51.6,11.5-80.8,11.2
		c-20.4-0.2-39.8-2.5-57.7-6.6v56.4c17.9,4,37.3,6.4,57.7,6.6c29.2,0.3,56.8-3.8,80.8-11.2V192.9L256.9,192.9z"/>
	<path class="st1" d="M297.4,209v-10.9c26.3-15.5,43.4-36.2,46.2-59.3v10.9C340.9,172.8,323.7,193.5,297.4,209L297.4,209z
		 M344,167.5v-56.4c-0.8,27.6-22.2,52.2-55.5,69.2l0,56.4C321.9,219.7,343.2,195,344,167.5L344,167.5z"/>
	<path class="st2" d="M343.7,138.8c-2.8,23-19.9,43.8-46.2,59.3V209c26.3-15.5,43.4-36.2,46.2-59.3V138.8L343.7,138.8z"/>
	<path class="st5" d="M153.8,213.5c-6.4-0.6-12.7-1.3-18.9-2.3v35.4c6.1,1,12.4,1.7,18.9,2.3V213.5L153.8,213.5z"/>
	<path class="st5" d="M214,235.2c-6.3,0.8-12.6,1.3-19.1,1.7v12.7c6.5-0.4,12.9-0.9,19.1-1.7V235.2L214,235.2z"/>
	<path class="st5" d="M241.9,205.5c-5.8,1.4-11.8,2.6-17.9,3.5v37.4c6.1-1,12.1-2.2,17.9-3.5V205.5L241.9,205.5z"/>
	<path class="st2" d="M184.2,226.8c-2.7,0-5.4,0.1-8.1,0c-4,0-7.9-0.2-11.8-0.4l0,23.2c3.9,0.2,7.8,0.3,11.8,0.4c2.7,0,5.4,0,8.1,0
		V226.8L184.2,226.8z"/>
	<path class="st5" d="M19.9,143c-0.7-1.5-1.4-3-2-4.5v39.6c0.6,1.5,1.2,3,2,4.5V143L19.9,143z"/>
	<path class="st5" d="M24.3,163.5c-0.9-1.4-1.8-2.9-2.6-4.3v27c0.8,1.5,1.7,2.9,2.6,4.3V163.5L24.3,163.5z"/>
	<path class="st2" d="M29.8,162.9c-1.1-1.4-2.2-2.8-3.2-4.2v35.1c1,1.4,2.1,2.8,3.2,4.2V162.9L29.8,162.9z"/>
	<path class="st5" d="M36.4,182.1c-1.3-1.3-2.6-2.6-3.8-4l0,23c1.2,1.3,2.5,2.7,3.8,4V182.1L36.4,182.1z"/>
	<path class="st2" d="M44,187c-1.5-1.2-3-2.5-4.4-3.7v24.9c1.4,1.3,2.9,2.5,4.4,3.7V187L44,187z"/>
	<path class="st2" d="M52.5,200.7c-1.7-1.1-3.3-2.3-4.9-3.5v17.6c1.6,1.2,3.2,2.4,4.9,3.5V200.7L52.5,200.7z"/>
	<path class="st2" d="M62,203.5c-1.8-1.1-3.6-2.2-5.4-3.3v20.7c1.8,1.1,3.6,2.2,5.4,3.3V203.5L62,203.5z"/>
	<path class="st2" d="M72.2,220.1c-2-1-3.9-2-5.9-3v9.5c1.9,1,3.9,2,5.9,3V220.1L72.2,220.1z"/>
</g>
</svg>
